<?xml version="1.0" encoding="UTF-8"?>
<svg id="chevrolet_camaro" data-name="chevrolet camaro" xmlns="http://www.w3.org/2000/svg" xmlns:xlink="http://www.w3.org/1999/xlink" viewBox="0 0 100 196">
  <defs>
    <style>
      .cls-1 {
        stroke: #1a1a1a;
        stroke-width: .1px;
      }

      .cls-1, .cls-2, .cls-3, .cls-4 {
        fill: none;
      }

      .cls-1, .cls-3, .cls-5, .cls-4 {
        stroke-miterlimit: 10;
      }

      .cls-6 {
        fill: #f8bb28;
      }

      .cls-7 {
        fill: url(#Dégradé_sans_nom_6);
      }

      .cls-8 {
        fill: url(#Dégradé_sans_nom_5);
      }

      .cls-9 {
        fill: gray;
      }

      .cls-10 {
        fill: #4d4d4d;
      }

      .cls-11 {
        fill: #ccc;
      }

      .cls-12 {
        fill: url(#Dégradé_sans_nom_416);
      }

      .cls-13 {
        fill: url(#Dégradé_sans_nom_413);
      }

      .cls-14 {
        fill: url(#Dégradé_sans_nom_349);
      }

      .cls-15 {
        fill: url(#Dégradé_sans_nom_397);
      }

      .cls-16 {
        fill: url(#Dégradé_sans_nom_399);
      }

      .cls-17 {
        fill: url(#Dégradé_sans_nom_396);
      }

      .cls-18 {
        fill: url(#Dégradé_sans_nom_302);
      }

      .cls-19 {
        fill: url(#Dégradé_sans_nom_360);
      }

      .cls-20 {
        fill: url(#Dégradé_sans_nom_362);
      }

      .cls-21 {
        fill: url(#Dégradé_sans_nom_459);
      }

      .cls-22 {
        fill: url(#Dégradé_sans_nom_485);
      }

      .cls-23 {
        fill: url(#Dégradé_sans_nom_445);
      }

      .cls-24 {
        fill: url(#Dégradé_sans_nom_446);
      }

      .cls-25 {
        fill: url(#Dégradé_sans_nom_449);
      }

      .cls-26 {
        fill: url(#Dégradé_sans_nom_439);
      }

      .cls-27 {
        fill: url(#Dégradé_sans_nom_159);
      }

      .cls-28 {
        fill: url(#Dégradé_sans_nom_310);
      }

      .cls-29 {
        fill: url(#Dégradé_sans_nom_315);
      }

      .cls-30 {
        fill: url(#Dégradé_sans_nom_338);
      }

      .cls-31 {
        fill: url(#Dégradé_sans_nom_273);
      }

      .cls-32 {
        fill: url(#Dégradé_sans_nom_204);
      }

      .cls-33 {
        fill: url(#Dégradé_sans_nom_269);
      }

      .cls-34 {
        fill: url(#Dégradé_sans_nom_210);
      }

      .cls-35 {
        fill: url(#Dégradé_sans_nom_358);
      }

      .cls-36 {
        fill: url(#Dégradé_sans_nom_352);
      }

      .cls-37 {
        fill: url(#Dégradé_sans_nom_356);
      }

      .cls-38 {
        fill: url(#Dégradé_sans_nom_326);
      }

      .cls-39 {
        fill: url(#Dégradé_sans_nom_176);
      }

      .cls-40 {
        fill: url(#Dégradé_sans_nom_195);
      }

      .cls-41 {
        fill: url(#Dégradé_sans_nom_174);
      }

      .cls-42 {
        fill: url(#Dégradé_sans_nom_105);
      }

      .cls-2 {
        stroke-linejoin: round;
      }

      .cls-2, .cls-3 {
        stroke-width: .52px;
      }

      .cls-2, .cls-3, .cls-5 {
        stroke: #000;
      }

      .cls-43 {
        fill: #2d313e;
      }

      .cls-44 {
        fill: #dea014;
      }

      .cls-5 {
        fill: url(#Dégradé_sans_nom_203);
        stroke-width: .31px;
      }

      .cls-4 {
        stroke: #4d4d4d;
        stroke-linecap: round;
        stroke-width: .36px;
      }

      .cls-45 {
        fill: #ffe335;
      }

      .cls-46 {
        fill: url(#Dégradé_sans_nom_41);
      }

      .cls-47 {
        fill: url(#Dégradé_sans_nom_59);
      }

      .cls-48 {
        fill: url(#Dégradé_sans_nom_269-2);
      }

      .cls-49 {
        fill: url(#Dégradé_sans_nom_485-2);
      }

      .cls-50 {
        fill: url(#Dégradé_sans_nom_459-2);
      }

      .cls-51 {
        fill: url(#Dégradé_sans_nom_326-2);
      }

      .cls-52 {
        fill: url(#Dégradé_sans_nom_349-2);
      }

      .cls-53 {
        fill: url(#Dégradé_sans_nom_338-2);
      }

      .cls-54 {
        fill: url(#Dégradé_sans_nom_315-4);
      }

      .cls-55 {
        fill: url(#Dégradé_sans_nom_315-2);
      }

      .cls-56 {
        fill: url(#Dégradé_sans_nom_315-3);
      }

      .cls-57 {
        fill: url(#Dégradé_sans_nom_310-2);
      }

      .cls-58 {
        fill: #333;
      }

      .cls-59 {
        fill: #1a1a1a;
      }

      .cls-60 {
        fill: url(#Dégradé_sans_nom_41-2);
      }

      .cls-61 {
        fill: url(#Dégradé_sans_nom_59-2);
      }
    </style>
    <linearGradient id="Dégradé_sans_nom_105" data-name="Dégradé sans nom 105" x1="19.13" y1="36.79" x2="80.87" y2="36.79" gradientUnits="userSpaceOnUse">
      <stop offset="0" stop-color="#dea014"/>
      <stop offset=".03" stop-color="#e4a618"/>
      <stop offset=".1" stop-color="#efb221"/>
      <stop offset=".21" stop-color="#f6b926"/>
      <stop offset=".5" stop-color="#f8bb28"/>
      <stop offset=".79" stop-color="#f6b926"/>
      <stop offset=".9" stop-color="#efb221"/>
      <stop offset=".97" stop-color="#e4a618"/>
      <stop offset="1" stop-color="#dea014"/>
    </linearGradient>
    <linearGradient id="Dégradé_sans_nom_203" data-name="Dégradé sans nom 203" x1="50" y1="76.23" x2="50" y2="24.39" gradientUnits="userSpaceOnUse">
      <stop offset="0" stop-color="#dea014"/>
      <stop offset=".02" stop-color="#e0a216" stop-opacity=".89"/>
      <stop offset=".07" stop-color="#e5a719" stop-opacity=".71"/>
      <stop offset=".12" stop-color="#eaac1d" stop-opacity=".54"/>
      <stop offset=".17" stop-color="#edb020" stop-opacity=".39"/>
      <stop offset=".23" stop-color="#f1b322" stop-opacity=".27"/>
      <stop offset=".3" stop-color="#f3b624" stop-opacity=".17"/>
      <stop offset=".38" stop-color="#f5b826" stop-opacity=".09"/>
      <stop offset=".48" stop-color="#f6b927" stop-opacity=".04"/>
      <stop offset=".62" stop-color="#f7ba27" stop-opacity="0"/>
      <stop offset="1" stop-color="#f8bb28" stop-opacity="0"/>
    </linearGradient>
    <linearGradient id="Dégradé_sans_nom_176" data-name="Dégradé sans nom 176" x1="50" y1="141.71" x2="50" y2="84.97" gradientUnits="userSpaceOnUse">
      <stop offset="0" stop-color="#dea014"/>
      <stop offset=".53" stop-color="#f8bb28"/>
    </linearGradient>
    <linearGradient id="Dégradé_sans_nom_174" data-name="Dégradé sans nom 174" x1="16.16" y1="37.88" x2="83.84" y2="37.88" gradientUnits="userSpaceOnUse">
      <stop offset="0" stop-color="#f8bb28"/>
      <stop offset=".23" stop-color="#f5b826"/>
      <stop offset=".37" stop-color="#edb01f"/>
      <stop offset=".49" stop-color="#dfa115"/>
      <stop offset=".5" stop-color="#dea014"/>
      <stop offset="1" stop-color="#f8bb28"/>
    </linearGradient>
    <linearGradient id="Dégradé_sans_nom_204" data-name="Dégradé sans nom 204" x1="55.71" y1="56.84" x2="93.05" y2="64.76" gradientUnits="userSpaceOnUse">
      <stop offset="0" stop-color="#dea014"/>
      <stop offset=".59" stop-color="#dfa115"/>
      <stop offset=".8" stop-color="#e6a81a"/>
      <stop offset=".95" stop-color="#f1b423"/>
      <stop offset="1" stop-color="#f8bb28"/>
    </linearGradient>
    <linearGradient id="Dégradé_sans_nom_195" data-name="Dégradé sans nom 195" x1="64.65" y1="56.84" x2="101.99" y2="64.76" gradientTransform="translate(108.94) rotate(-180) scale(1 -1)" gradientUnits="userSpaceOnUse">
      <stop offset="0" stop-color="#dea014"/>
      <stop offset=".59" stop-color="#dfa115"/>
      <stop offset=".8" stop-color="#e6a81a"/>
      <stop offset=".95" stop-color="#f1b423"/>
      <stop offset="1" stop-color="#f8bb28"/>
    </linearGradient>
    <linearGradient id="Dégradé_sans_nom_59" data-name="Dégradé sans nom 59" x1="80.25" y1="95.75" x2="85.91" y2="95.75" gradientUnits="userSpaceOnUse">
      <stop offset=".24" stop-color="#f8bb28"/>
      <stop offset=".68" stop-color="#e5a719"/>
      <stop offset="1" stop-color="#dea014"/>
    </linearGradient>
    <linearGradient id="Dégradé_sans_nom_59-2" data-name="Dégradé sans nom 59" x1="138.38" x2="144.04" gradientTransform="translate(158.13) rotate(-180) scale(1 -1)" xlink:href="#Dégradé_sans_nom_59"/>
    <linearGradient id="Dégradé_sans_nom_159" data-name="Dégradé sans nom 159" x1="13.39" y1="36.71" x2="86.61" y2="36.71" gradientUnits="userSpaceOnUse">
      <stop offset="0" stop-color="#dea014"/>
      <stop offset=".01" stop-color="#dfa115"/>
      <stop offset=".13" stop-color="#edb01f"/>
      <stop offset=".27" stop-color="#f5b826"/>
      <stop offset=".5" stop-color="#f8bb28"/>
      <stop offset=".73" stop-color="#f5b826"/>
      <stop offset=".87" stop-color="#edb01f"/>
      <stop offset=".99" stop-color="#dfa115"/>
      <stop offset="1" stop-color="#dea014"/>
    </linearGradient>
    <linearGradient id="Dégradé_sans_nom_273" data-name="Dégradé sans nom 273" x1="50" y1="189.72" x2="50" y2="164.79" gradientUnits="userSpaceOnUse">
      <stop offset="0" stop-color="#dea014"/>
      <stop offset=".45" stop-color="#dfa115"/>
      <stop offset=".61" stop-color="#e6a81a"/>
      <stop offset=".72" stop-color="#f1b423"/>
      <stop offset=".76" stop-color="#f8bb28"/>
    </linearGradient>
    <radialGradient id="Dégradé_sans_nom_210" data-name="Dégradé sans nom 210" cx="49.63" cy="179.22" fx="49.63" fy="179.22" r="28.74" gradientTransform="translate(0 95.06) scale(1 .47)" gradientUnits="userSpaceOnUse">
      <stop offset="0" stop-color="#dea014"/>
      <stop offset=".59" stop-color="#dfa115"/>
      <stop offset=".8" stop-color="#e6a81a"/>
      <stop offset=".95" stop-color="#f1b423"/>
      <stop offset="1" stop-color="#f8bb28"/>
    </radialGradient>
    <linearGradient id="Dégradé_sans_nom_269" data-name="Dégradé sans nom 269" x1="28.17" y1="171.62" x2="38.8" y2="176.19" gradientUnits="userSpaceOnUse">
      <stop offset="0" stop-color="#4d4d4d" stop-opacity=".5"/>
      <stop offset=".25" stop-color="#dea014" stop-opacity="0"/>
    </linearGradient>
    <linearGradient id="Dégradé_sans_nom_269-2" data-name="Dégradé sans nom 269" x1="-22.1" y1="171.62" x2="-11.47" y2="176.19" gradientTransform="translate(49.73) rotate(-180) scale(1 -1)" xlink:href="#Dégradé_sans_nom_269"/>
    <linearGradient id="Dégradé_sans_nom_41" data-name="Dégradé sans nom 41" x1="55.62" y1="154.99" x2="67.63" y2="151.59" gradientTransform="translate(141.21) rotate(-180) scale(1 -1)" gradientUnits="userSpaceOnUse">
      <stop offset="0" stop-color="#dea014"/>
      <stop offset=".35" stop-color="#e5a719"/>
      <stop offset=".85" stop-color="#f8bb28"/>
    </linearGradient>
    <linearGradient id="Dégradé_sans_nom_41-2" data-name="Dégradé sans nom 41" x1="14.4" y1="154.98" x2="26.41" y2="151.59" gradientTransform="matrix(1,0,0,1,0,0)" xlink:href="#Dégradé_sans_nom_41"/>
    <linearGradient id="Dégradé_sans_nom_302" data-name="Dégradé sans nom 302" x1="-4.54" y1="11.06" x2="105.15" y2="11.06" gradientUnits="userSpaceOnUse">
      <stop offset="0" stop-color="#1a1a1a"/>
      <stop offset=".02" stop-color="#423518"/>
      <stop offset=".05" stop-color="#664e17"/>
      <stop offset=".08" stop-color="#876416"/>
      <stop offset=".11" stop-color="#a27715"/>
      <stop offset=".14" stop-color="#b88615"/>
      <stop offset=".18" stop-color="#c99114"/>
      <stop offset=".23" stop-color="#d59a14"/>
      <stop offset=".3" stop-color="#dc9e14"/>
      <stop offset=".5" stop-color="#dea014"/>
      <stop offset=".7" stop-color="#dc9e14"/>
      <stop offset=".77" stop-color="#d59a14"/>
      <stop offset=".82" stop-color="#c99114"/>
      <stop offset=".86" stop-color="#b88615"/>
      <stop offset=".89" stop-color="#a27715"/>
      <stop offset=".92" stop-color="#876416"/>
      <stop offset=".95" stop-color="#664e17"/>
      <stop offset=".98" stop-color="#423518"/>
      <stop offset="1" stop-color="#1a1a1a"/>
    </linearGradient>
    <linearGradient id="Dégradé_sans_nom_315" data-name="Dégradé sans nom 315" x1="75.93" y1="100.43" x2="81.22" y2="100.43" gradientUnits="userSpaceOnUse">
      <stop offset="0" stop-color="#999"/>
      <stop offset=".22" stop-color="#7b7b7b"/>
      <stop offset=".56" stop-color="#545454"/>
      <stop offset=".83" stop-color="#3b3b3b"/>
      <stop offset="1" stop-color="#333"/>
    </linearGradient>
    <linearGradient id="Dégradé_sans_nom_315-2" data-name="Dégradé sans nom 315" x1="76.24" y1="129.41" x2="79.59" y2="129.55" xlink:href="#Dégradé_sans_nom_315"/>
    <linearGradient id="Dégradé_sans_nom_326" data-name="Dégradé sans nom 326" x1="81.78" y1="83.76" x2="86.77" y2="76.87" gradientUnits="userSpaceOnUse">
      <stop offset=".58" stop-color="#f8bb28" stop-opacity="0"/>
      <stop offset=".63" stop-color="#f6b926" stop-opacity=".06"/>
      <stop offset=".7" stop-color="#f2b523" stop-opacity=".21"/>
      <stop offset=".81" stop-color="#ebae1e" stop-opacity=".47"/>
      <stop offset=".94" stop-color="#e2a517" stop-opacity=".81"/>
      <stop offset="1" stop-color="#dea014"/>
    </linearGradient>
    <linearGradient id="Dégradé_sans_nom_338" data-name="Dégradé sans nom 338" x1="81.8" y1="77.82" x2="92.21" y2="77.82" gradientUnits="userSpaceOnUse">
      <stop offset="0" stop-color="#1a1a1a"/>
      <stop offset=".11" stop-color="#886a20" stop-opacity=".5"/>
      <stop offset=".25" stop-color="#f8bb28" stop-opacity="0"/>
    </linearGradient>
    <linearGradient id="Dégradé_sans_nom_485" data-name="Dégradé sans nom 485" x1="82.92" y1="115.03" x2="84.42" y2="115.03" gradientUnits="userSpaceOnUse">
      <stop offset="0" stop-color="#ffe335"/>
      <stop offset=".33" stop-color="#f1c727"/>
      <stop offset=".73" stop-color="#e3aa19"/>
      <stop offset=".96" stop-color="#dea014"/>
    </linearGradient>
    <linearGradient id="Dégradé_sans_nom_315-3" data-name="Dégradé sans nom 315" x1="134.59" x2="139.89" gradientTransform="translate(158.66) rotate(-180) scale(1 -1)" xlink:href="#Dégradé_sans_nom_315"/>
    <linearGradient id="Dégradé_sans_nom_315-4" data-name="Dégradé sans nom 315" x1="134.9" y1="129.41" x2="138.26" y2="129.55" gradientTransform="translate(158.66) rotate(-180) scale(1 -1)" xlink:href="#Dégradé_sans_nom_315"/>
    <linearGradient id="Dégradé_sans_nom_326-2" data-name="Dégradé sans nom 326" y1="83.76" x2="86.77" y2="76.87" gradientTransform="translate(100) rotate(-180) scale(1 -1)" xlink:href="#Dégradé_sans_nom_326"/>
    <linearGradient id="Dégradé_sans_nom_338-2" data-name="Dégradé sans nom 338" x1="81.8" x2="92.21" gradientTransform="translate(100) rotate(-180) scale(1 -1)" xlink:href="#Dégradé_sans_nom_338"/>
    <linearGradient id="Dégradé_sans_nom_485-2" data-name="Dégradé sans nom 485" x1="82.93" x2="84.44" gradientTransform="translate(99.72) rotate(-180) scale(1 -1)" xlink:href="#Dégradé_sans_nom_485"/>
    <linearGradient id="Dégradé_sans_nom_310" data-name="Dégradé sans nom 310" x1="15.68" y1="121.86" x2="19.76" y2="121.86" gradientUnits="userSpaceOnUse">
      <stop offset="0" stop-color="#000"/>
      <stop offset=".28" stop-color="#080808"/>
      <stop offset=".73" stop-color="#212121"/>
      <stop offset="1" stop-color="#333"/>
    </linearGradient>
    <linearGradient id="Dégradé_sans_nom_310-2" data-name="Dégradé sans nom 310" x1="-50.28" y1="121.86" x2="-46.2" y2="121.86" gradientTransform="translate(34.04) rotate(-180) scale(1 -1)" xlink:href="#Dégradé_sans_nom_310"/>
    <linearGradient id="Dégradé_sans_nom_352" data-name="Dégradé sans nom 352" x1="49.86" y1="77.83" x2="49.86" y2="72.97" gradientUnits="userSpaceOnUse">
      <stop offset="0" stop-color="#2d313e"/>
      <stop offset=".32" stop-color="#292c37"/>
      <stop offset=".77" stop-color="#202125"/>
      <stop offset="1" stop-color="#1a1a1a"/>
    </linearGradient>
    <linearGradient id="Dégradé_sans_nom_362" data-name="Dégradé sans nom 362" x1="34.27" y1="75.9" x2="34.27" y2="72.33" gradientUnits="userSpaceOnUse">
      <stop offset="0" stop-color="#1a1a1a"/>
      <stop offset=".09" stop-color="#1e1f22"/>
      <stop offset=".33" stop-color="#262931"/>
      <stop offset=".61" stop-color="#2b2f3b"/>
      <stop offset="1" stop-color="#2d313e"/>
    </linearGradient>
    <linearGradient id="Dégradé_sans_nom_349" data-name="Dégradé sans nom 349" x1="35.69" y1="72.49" x2="41.09" y2="72.49" gradientUnits="userSpaceOnUse">
      <stop offset="0" stop-color="#1a1a1a"/>
      <stop offset=".05" stop-color="#1e1f22"/>
      <stop offset=".17" stop-color="#262931"/>
      <stop offset=".31" stop-color="#2b2f3b"/>
      <stop offset=".5" stop-color="#2d313e"/>
      <stop offset=".7" stop-color="#2b2f3b"/>
      <stop offset=".84" stop-color="#262932"/>
      <stop offset=".95" stop-color="#1e1f23"/>
      <stop offset="1" stop-color="#1a1a1a"/>
    </linearGradient>
    <linearGradient id="Dégradé_sans_nom_396" data-name="Dégradé sans nom 396" x1="45.55" y1="80" x2="54.87" y2="80" gradientUnits="userSpaceOnUse">
      <stop offset="0" stop-color="#2d313e"/>
      <stop offset=".05" stop-color="#24272e"/>
      <stop offset=".12" stop-color="#1e1f22"/>
      <stop offset=".22" stop-color="#1a1b1b"/>
      <stop offset=".5" stop-color="#1a1a1a"/>
      <stop offset=".78" stop-color="#1a1b1b"/>
      <stop offset=".88" stop-color="#1e1f22"/>
      <stop offset=".95" stop-color="#24272e"/>
      <stop offset="1" stop-color="#2d313e"/>
    </linearGradient>
    <linearGradient id="Dégradé_sans_nom_349-2" data-name="Dégradé sans nom 349" x1="27.71" y1="73.07" x2="33.19" y2="73.07" xlink:href="#Dégradé_sans_nom_349"/>
    <linearGradient id="Dégradé_sans_nom_360" data-name="Dégradé sans nom 360" x1="50.03" y1="77.05" x2="50.03" y2="75.89" gradientUnits="userSpaceOnUse">
      <stop offset="0" stop-color="#1a1a1a"/>
      <stop offset="1" stop-color="#2d313e"/>
    </linearGradient>
    <linearGradient id="Dégradé_sans_nom_356" data-name="Dégradé sans nom 356" x1="50.35" y1="71.87" x2="50.35" y2="67.02" gradientUnits="userSpaceOnUse">
      <stop offset="0" stop-color="#1a1a1a"/>
      <stop offset=".11" stop-color="#1f2024"/>
      <stop offset=".32" stop-color="#272932"/>
      <stop offset=".58" stop-color="#2b2f3b"/>
      <stop offset="1" stop-color="#2d313e"/>
    </linearGradient>
    <linearGradient id="Dégradé_sans_nom_358" data-name="Dégradé sans nom 358" x1="50.27" y1="70.56" x2="50.27" y2="66.59" gradientUnits="userSpaceOnUse">
      <stop offset="0" stop-color="#2d313e"/>
      <stop offset=".32" stop-color="#2a2d39"/>
      <stop offset=".69" stop-color="#23252b"/>
      <stop offset="1" stop-color="#1a1a1a"/>
    </linearGradient>
    <linearGradient id="Dégradé_sans_nom_397" data-name="Dégradé sans nom 397" x1="18.21" y1="79.57" x2="75.02" y2="70.58" gradientUnits="userSpaceOnUse">
      <stop offset="0" stop-color="#f2f2f2"/>
      <stop offset=".03" stop-color="#d4d4d4" stop-opacity=".93"/>
      <stop offset=".07" stop-color="#adadad" stop-opacity=".84"/>
      <stop offset=".12" stop-color="#8a8a8a" stop-opacity=".76"/>
      <stop offset=".18" stop-color="#6b6b6b" stop-opacity=".69"/>
      <stop offset=".24" stop-color="#525252" stop-opacity=".63"/>
      <stop offset=".31" stop-color="#3d3d3d" stop-opacity=".58"/>
      <stop offset=".38" stop-color="#2d2d2d" stop-opacity=".54"/>
      <stop offset=".48" stop-color="#222" stop-opacity=".52"/>
      <stop offset=".62" stop-color="#1b1b1b" stop-opacity=".5"/>
      <stop offset="1" stop-color="#1a1a1a" stop-opacity=".5"/>
    </linearGradient>
    <linearGradient id="Dégradé_sans_nom_399" data-name="Dégradé sans nom 399" x1="27.67" y1="67.99" x2="82.54" y2="85.25" gradientUnits="userSpaceOnUse">
      <stop offset="0" stop-color="#1a1a1a" stop-opacity=".2"/>
      <stop offset=".38" stop-color="#1b1b1b" stop-opacity=".21"/>
      <stop offset=".51" stop-color="#212121" stop-opacity=".23"/>
      <stop offset=".61" stop-color="#2c2c2c" stop-opacity=".27"/>
      <stop offset=".69" stop-color="#3c3c3c" stop-opacity=".33"/>
      <stop offset=".76" stop-color="#505050" stop-opacity=".4"/>
      <stop offset=".82" stop-color="#696969" stop-opacity=".49"/>
      <stop offset=".87" stop-color="#868686" stop-opacity=".6"/>
      <stop offset=".92" stop-color="#a9a9a9" stop-opacity=".73"/>
      <stop offset=".96" stop-color="#cecece" stop-opacity=".87"/>
      <stop offset="1" stop-color="#f2f2f2"/>
    </linearGradient>
    <linearGradient id="Dégradé_sans_nom_416" data-name="Dégradé sans nom 416" x1="49.79" y1="167.53" x2="49.79" y2="150.41" gradientUnits="userSpaceOnUse">
      <stop offset="0" stop-color="#1a1a1a"/>
      <stop offset="1" stop-color="#2d313e"/>
    </linearGradient>
    <linearGradient id="Dégradé_sans_nom_439" data-name="Dégradé sans nom 439" x1="29.91" y1="143.8" x2="70.09" y2="143.8" gradientUnits="userSpaceOnUse">
      <stop offset="0" stop-color="#1a1a1a"/>
      <stop offset=".16" stop-color="#23252b"/>
      <stop offset=".34" stop-color="#2a2e39"/>
      <stop offset=".5" stop-color="#2d313e"/>
      <stop offset=".67" stop-color="#2a2e39"/>
      <stop offset=".83" stop-color="#24262d"/>
      <stop offset="1" stop-color="#1a1a1a"/>
    </linearGradient>
    <linearGradient id="Dégradé_sans_nom_445" data-name="Dégradé sans nom 445" x1="50.01" y1="146.7" x2="50.01" y2="144" gradientUnits="userSpaceOnUse">
      <stop offset="0" stop-color="#1a1a1a"/>
      <stop offset=".05" stop-color="#1c1c1e"/>
      <stop offset=".27" stop-color="#25272f"/>
      <stop offset=".52" stop-color="#2a2d38"/>
      <stop offset=".84" stop-color="#2c303c"/>
    </linearGradient>
    <linearGradient id="Dégradé_sans_nom_413" data-name="Dégradé sans nom 413" x1="28.6" y1="155.29" x2="72.14" y2="155.29" gradientUnits="userSpaceOnUse">
      <stop offset="0" stop-color="#1a1a1a"/>
      <stop offset=".05" stop-color="#222329"/>
      <stop offset=".12" stop-color="#282b35"/>
      <stop offset=".22" stop-color="#2c2f3c"/>
      <stop offset=".5" stop-color="#2d313e"/>
      <stop offset=".78" stop-color="#2c2f3c"/>
      <stop offset=".88" stop-color="#282b35"/>
      <stop offset=".95" stop-color="#222329"/>
      <stop offset="1" stop-color="#1a1a1a"/>
    </linearGradient>
    <linearGradient id="Dégradé_sans_nom_449" data-name="Dégradé sans nom 449" x1="35.08" y1="152.68" x2="75.22" y2="154.48" gradientUnits="userSpaceOnUse">
      <stop offset="0" stop-color="#1a1a1a" stop-opacity=".2"/>
      <stop offset=".38" stop-color="#1b1b1b" stop-opacity=".21"/>
      <stop offset=".51" stop-color="#212121" stop-opacity=".23"/>
      <stop offset=".61" stop-color="#2c2c2c" stop-opacity=".27"/>
      <stop offset=".69" stop-color="#3c3c3c" stop-opacity=".33"/>
      <stop offset=".76" stop-color="#505050" stop-opacity=".4"/>
      <stop offset=".82" stop-color="#696969" stop-opacity=".49"/>
      <stop offset=".87" stop-color="#868686" stop-opacity=".6"/>
      <stop offset=".92" stop-color="#a9a9a9" stop-opacity=".73"/>
      <stop offset=".96" stop-color="#cecece" stop-opacity=".87"/>
      <stop offset="1" stop-color="#f2f2f2"/>
    </linearGradient>
    <linearGradient id="Dégradé_sans_nom_446" data-name="Dégradé sans nom 446" x1="25.39" y1="155.16" x2="65.43" y2="151.8" gradientUnits="userSpaceOnUse">
      <stop offset="0" stop-color="#f2f2f2"/>
      <stop offset=".04" stop-color="#cecece" stop-opacity=".87"/>
      <stop offset=".08" stop-color="#a9a9a9" stop-opacity=".73"/>
      <stop offset=".13" stop-color="#868686" stop-opacity=".6"/>
      <stop offset=".18" stop-color="#696969" stop-opacity=".49"/>
      <stop offset=".24" stop-color="#505050" stop-opacity=".4"/>
      <stop offset=".31" stop-color="#3c3c3c" stop-opacity=".33"/>
      <stop offset=".39" stop-color="#2c2c2c" stop-opacity=".27"/>
      <stop offset=".49" stop-color="#212121" stop-opacity=".23"/>
      <stop offset=".62" stop-color="#1b1b1b" stop-opacity=".21"/>
      <stop offset="1" stop-color="#1a1a1a" stop-opacity=".2"/>
    </linearGradient>
    <linearGradient id="Dégradé_sans_nom_459" data-name="Dégradé sans nom 459" x1="17.61" y1="179.84" x2="32.03" y2="185.89" gradientTransform="translate(100.57) rotate(-180) scale(1 -1)" gradientUnits="userSpaceOnUse">
      <stop offset="0" stop-color="#1a1a1a"/>
      <stop offset=".04" stop-color="#2c2619"/>
      <stop offset=".16" stop-color="#5b4617"/>
      <stop offset=".28" stop-color="#836216"/>
      <stop offset=".41" stop-color="#a47815"/>
      <stop offset=".53" stop-color="#bd8914"/>
      <stop offset=".67" stop-color="#cf9614"/>
      <stop offset=".8" stop-color="#da9d14"/>
      <stop offset=".96" stop-color="#dea014"/>
    </linearGradient>
    <linearGradient id="Dégradé_sans_nom_459-2" data-name="Dégradé sans nom 459" x1="17.04" y1="179.84" x2="31.47" y2="185.89" gradientTransform="matrix(1,0,0,1,0,0)" xlink:href="#Dégradé_sans_nom_459"/>
    <radialGradient id="Dégradé_sans_nom_5" data-name="Dégradé sans nom 5" cx="25.76" cy="13.89" fx="25.76" fy="13.89" r="5.41" gradientTransform="translate(-1.27 14.1) rotate(-18.11) scale(1 .59)" gradientUnits="userSpaceOnUse">
      <stop offset="0" stop-color="#fff"/>
      <stop offset=".23" stop-color="#fff" stop-opacity=".99"/>
      <stop offset=".36" stop-color="#fff" stop-opacity=".96"/>
      <stop offset=".47" stop-color="#fff" stop-opacity=".9"/>
      <stop offset=".57" stop-color="#fff" stop-opacity=".82"/>
      <stop offset=".66" stop-color="#fff" stop-opacity=".72"/>
      <stop offset=".75" stop-color="#fff" stop-opacity=".59"/>
      <stop offset=".83" stop-color="#fff" stop-opacity=".44"/>
      <stop offset=".91" stop-color="#fff" stop-opacity=".26"/>
      <stop offset=".98" stop-color="#fff" stop-opacity=".07"/>
      <stop offset="1" stop-color="#fff" stop-opacity="0"/>
    </radialGradient>
    <radialGradient id="Dégradé_sans_nom_6" data-name="Dégradé sans nom 6" cx="-34.22" cy="13.89" fx="-34.22" fy="13.89" r="5.41" gradientTransform="translate(44.27 -4.53) rotate(-161.89) scale(1 -.59)" gradientUnits="userSpaceOnUse">
      <stop offset="0" stop-color="#fff"/>
      <stop offset=".23" stop-color="#fff" stop-opacity=".99"/>
      <stop offset=".36" stop-color="#fff" stop-opacity=".96"/>
      <stop offset=".47" stop-color="#fff" stop-opacity=".9"/>
      <stop offset=".57" stop-color="#fff" stop-opacity=".82"/>
      <stop offset=".66" stop-color="#fff" stop-opacity=".72"/>
      <stop offset=".75" stop-color="#fff" stop-opacity=".59"/>
      <stop offset=".83" stop-color="#fff" stop-opacity=".44"/>
      <stop offset=".91" stop-color="#fff" stop-opacity=".26"/>
      <stop offset=".98" stop-color="#fff" stop-opacity=".07"/>
      <stop offset="1" stop-color="#fff" stop-opacity="0"/>
    </radialGradient>
  </defs>
  <g id="layer2">
    <path id="capot" class="cls-42" d="M50,57.15c-15.62-.07-11.57,1.03-15.29-.62-6.15,1.12-5.72,1.77-6.91,1.76-1.51-.12-3.04,1.22-7.05,3.85-1.05.89-1.6.86-1.62-1.08,0-11.02.17-31.39,3.95-38.87,2.55-4.32,14.87-7.96,24.66-10.91,1-.29,1.44-.41,2.27-.4.83,0,1.27.11,2.27.4,9.79,2.95,22.11,6.59,24.66,10.91,3.77,7.48,3.95,27.85,3.95,38.87-.01,1.95-.57,1.98-1.62,1.08-4.02-2.63-5.54-3.97-7.05-3.85-1.19.01-.76-.64-6.91-1.76-3.73,1.65.33.55-15.29.62Z"/>
    <path id="capot-2" data-name="capot" class="cls-5" d="M50,57.15c-15.62-.07-11.57,1.03-15.29-.62-6.15,1.12-5.72,1.77-6.91,1.76-1.51-.12-3.04,1.22-7.05,3.85-1.05.89-1.6.86-1.62-1.08,0-11.02.17-31.39,3.95-38.87,2.55-4.32,14.87-7.96,24.66-10.91,1-.29,1.44-.41,2.27-.4.83,0,1.27.11,2.27.4,9.79,2.95,22.11,6.59,24.66,10.91,3.77,7.48,3.95,27.85,3.95,38.87-.01,1.95-.57,1.98-1.62,1.08-4.02-2.63-5.54-3.97-7.05-3.85-1.19.01-.76-.64-6.91-1.76-3.73,1.65.33.55-15.29.62Z"/>
    <path id="toit" class="cls-39" d="M74.89,88.08c-6.92-3.13-21.1-3.11-24.89-3.11s-17.96-.01-24.89,3.11c-.16.07-.25.11-.35-.16,2.17,7.74,1.91,21.84,3.47,52.14v.19c3.45.54,11.49,1.45,21.77,1.45,10.28,0,18.32-.91,21.76-1.45v-.19c1.56-30.3,1.3-44.4,3.48-52.14-.1.27-.19.23-.35.16Z"/>
    <path class="cls-41" d="M82.69,69.06c.3-.05.65-.18,1.01-.35.37-30.32.33-49.86-4.32-52.96h.01s-.01,0-.01,0c-10.21-6.45-27.48-9.51-29.38-9.46-1.9-.05-19.17,3.01-29.38,9.46h-.01s.01,0,.01,0c-4.65,3.1-4.69,22.63-4.32,52.96.36.17.71.3,1.01.35.19.03.37.14.55.4.09-1.88.96-3.05,1.64-3.36l-.37-1.55c-.36-1.46,12.51-6.76,26.22-7.37-10.13.13-7.35.82-10.64-.64-6.15,1.12-5.72,1.77-6.91,1.76-1.51-.12-3.04,1.22-7.05,3.85-1.05.89-1.6.86-1.62-1.08,0-11.02.17-31.39,3.94-38.87,2.55-4.32,14.87-7.96,24.66-10.91,1-.29,1.44-.41,2.27-.4.83,0,1.27.11,2.27.4,9.79,2.95,22.11,6.59,24.66,10.91,3.77,7.48,3.94,27.85,3.94,38.87-.01,1.95-.57,1.98-1.62,1.08-4.02-2.63-5.54-3.97-7.05-3.85-1.19.01-.76-.64-6.91-1.76-3.3,1.46-.51.77-10.64.64,13.71.61,26.58,5.91,26.22,7.37l-.37,1.55c.68.31,1.54,1.48,1.64,3.36.18-.26.36-.37.55-.4Z"/>
    <g id="shadow_capot" data-name="shadow capot">
      <path class="cls-32" d="M80.87,64.54c.36-1.46-12.51-6.76-26.22-7.37,10.13.13,7.35.82,10.64-.64,6.15,1.12,5.72,1.77,6.91,1.76,1.51-.12,3.04,1.22,7.05,3.85.94.8,1.53.86,1.59-.54.19.73.26,2.2.02,2.94Z"/>
      <path class="cls-40" d="M19.13,64.54c-.36-1.46,12.51-6.76,26.22-7.37-10.13.13-7.35.82-10.64-.64-6.15,1.12-5.72,1.77-6.91,1.76-1.51-.12-3.04,1.22-7.05,3.85-.94.8-1.53.86-1.59-.54-.19.73-.26,2.2-.02,2.94Z"/>
    </g>
    <path id="portiere" class="cls-47" d="M81.48,71.42c.22-1.06.43-1.63.66-1.97.18-.26.36-.36.55-.4.29-.05.65-.18,1.01-.34.47-.23.96-.52,1.35-.82.15-.11.54-.12.74.11.07.07.11.18.11.32v.03c-.25,8.45-1.59,53.91-1.59,54.71,0,.12,0,.26.01.4-1.05.55-2.18-.02-3-.91-.2-.22-.39-.46-.54-.7-.21-.32-.37-.65-.49-.96-.02-.07-.02-.12-.03-.18-.11-.62.46-.58.49-.77,0,0,.76-27.04,1.16-41.09.12-4.84.22-8.14.22-8.26,0-.1-.01-.17-.04-.2-.11-.08-.43.4-.6,1.01Z"/>
    <path id="portiere-2" data-name="portiere" class="cls-61" d="M18.52,71.42c-.22-1.06-.43-1.63-.66-1.97-.18-.26-.36-.36-.55-.4-.29-.05-.65-.18-1.01-.34-.47-.23-.96-.52-1.35-.82-.15-.11-.54-.12-.74.11-.07.07-.11.18-.11.32v.03c.25,8.45,1.59,53.91,1.59,54.71,0,.12,0,.26-.01.4,1.05.55,2.18-.02,3-.91.2-.22.39-.46.54-.7.21-.32.37-.65.49-.96.02-.07.02-.12.03-.18.11-.62-.46-.58-.49-.77,0,0-.76-27.04-1.16-41.09-.12-4.84-.22-8.14-.22-8.26,0-.1.01-.17.04-.2.11-.08.43.4.6,1.01Z"/>
    <path class="cls-27" d="M14.04,66.8s0,.02.01.03c.01.16.12.34.3.54.11.12.26.25.43.39.05.04.1.09.17.14.4.3.88.59,1.35.82-.36-30.31-.33-49.83,4.31-52.95h.01c10.21-6.46,27.48-9.52,29.38-9.47,1.9-.05,19.17,3.01,29.38,9.46,4.65,3.09,4.68,22.63,4.32,52.96.47-.23.96-.52,1.35-.82.5-.39.86-.78.9-1.06.59-26.03,2.4-40.74-4.51-50.88-4.23-5.34-25.09-9.98-31.04-11.19-.27-.05-.54-.05-.81,0-5.94,1.21-26.81,5.85-31.04,11.19-6.91,10.15-5.1,24.85-4.51,50.88"/>
    <path class="cls-6" d="M70.42,164.79c-.14,2.48-.05,4.24.26,5.73,9.73-20.72,11.58-51.92,12.04-44.75,1.62,25.98-1.38,52.7-6.54,55.95.31.59.62,1.24.96,1.93,2.22-1.23,3.72-2.7,4.19-4.44,2.6-9.53,5.06-16.44,5.22-28.92.54-16.56-2.15-22.55-2.24-26.81-1.31.69-2.73-.36-3.54-1.6-.54,4.7-2.23,19.36-2.94,17.62-1.04-2.05-1.82-10.27-1.9-16.86-.01-.7-.02-1.38-.01-2.04.33-27.79,1.53-29.86,2.08-32.82l1.85-8.73,1.61-7.62c.22-1.06.43-1.63.66-1.97-.09-1.87-.96-3.05-1.63-3.36l-5.14,21.38c-.05.21-.09.35-.12.46-2.18,7.74-1.92,21.84-3.48,52.14v.19s-1.33,24.27-1.33,24.27c0,.08-.01.17-.01.26.12-.06.24-.1.36-.17"/>
    <path class="cls-6" d="M20.13,79.04l1.85,8.73c.55,2.96,1.75,5.03,2.08,32.82.01.66,0,1.34-.01,2.04-.08,6.59-.86,14.81-1.9,16.86-.71,1.74-2.39-12.92-2.94-17.62-.81,1.24-2.23,2.29-3.54,1.6-.08,4.26-2.78,10.25-2.24,26.81.17,12.48,2.62,19.39,5.22,28.92.48,1.75,1.98,3.22,4.19,4.44.33-.69.65-1.33.96-1.93-5.15-3.26-8.16-29.98-6.54-55.95.46-7.16,2.31,24.03,12.04,44.75.31-1.5.4-3.26.26-5.73,0-.09-.01-.18-.01-.26l-1.32-24.27v-.19c-1.57-30.31-1.31-44.4-3.49-52.14-.03-.1-.07-.25-.12-.46l-5.14-21.38c-.68.31-1.54,1.49-1.63,3.36.23.33.44.91.66,1.97l1.61,7.62Z"/>
    <path id="coffre" class="cls-31" d="M23.84,181.74c-.02.2.07.42.54.62.6.31,4.61,2.56,11.81,5.4.18.03.35.06.54.09.87.16,1.76.31,2.66.46.12.02.26.04.4.06,1.05.17,2.11.32,3.2.47,1.09.16,2.21.29,3.32.44.16.01.3.03.46.05.78.09,1.55.18,2.33.27.3.03.59.06.9.1.3-.04.59-.07.9-.1.78-.09,1.55-.18,2.33-.27.16-.02.3-.04.46-.05,1.11-.15,2.23-.28,3.32-.44,1.08-.15,2.14-.3,3.2-.47.14-.02.27-.04.4-.06.91-.15,1.79-.3,2.66-.46.19-.03.36-.06.54-.09,7.2-2.84,11.21-5.09,11.81-5.4.47-.22.56-.43.54-.62-.01-.06-.02-.12-.05-.19-2.89-5.69-4.73-7.71-5.42-11.03-.31-1.5-.4-3.26-.26-5.73-6.79,3.06-11.47,3.5-20.42,3.5s-13.63-.44-20.42-3.5c.14,2.48.05,4.24-.26,5.73-.7,3.3-2.51,5.32-5.38,10.95-.04.08-.08.18-.09.27Z"/>
    <g id="aileron">
      <path id="aileron-2" data-name="aileron" class="cls-34" d="M63.72,187.79s.01-.01.02-.01h.02c7.23-2.84,11.25-5.1,11.85-5.41.63-.29.59-.58.48-.84-.03-.06-.05-.11-.08-.17-.44-.83-.83-1.59-1.22-2.28-.24-.44-.37-.28-1.01-.04-7.72,3.35-8.65,3.55-9.1,4.02-1.86,1.54-9.61,2.8-14.69,3.08-5.08-.28-12.82-1.54-14.69-3.08-.45-.47-1.37-.67-9.1-4.02-.61-.23-.76-.39-.98,0l-.03.04c-.39.69-.78,1.45-1.22,2.28-.02.03-.03.06-.05.1-.14.27-.24.59.45.91.6.31,4.62,2.57,11.85,5.41h.02-.02c4.34.8,9.08,1.42,13.76,1.94,4.68-.52,9.42-1.13,13.76-1.94"/>
      <g id="bande_aileron" data-name="bande aileron">
        <path class="cls-3" d="M65.55,182.53v.06l.3,1.67c.17.91-.46,1.77-1.36,1.89l-10.9,1.57c-1.02.15-1.93-.65-1.93-1.68v-.03"/>
        <path class="cls-3" d="M48.33,186.02v.03c0,1.03-.91,1.82-1.93,1.68l-10.9-1.57c-.91-.12-1.53-.99-1.36-1.89l.3-1.67v-.06"/>
        <path d="M52.39,185.95v.1c0,.53.43.97.96.97.04,0,.09-.01.14-.01l10.9-1.57c.24-.03.46-.17.59-.36.15-.2.2-.44.16-.68l-.27-1.5c-.07.05-.12.1-.18.16-1.59,1.31-7.45,2.43-12.29,2.89Z"/>
        <path d="M35.14,182.9l-.27,1.5c-.04.24.01.48.16.68.14.2.35.33.59.36l10.9,1.57s.09.01.14.01c.53,0,.96-.44.96-.97v-.1c-4.84-.47-10.7-1.58-12.29-2.89-.05-.05-.1-.1-.18-.16Z"/>
      </g>
      <path id="aileron-3" data-name="aileron" class="cls-33" d="M63.72,187.79s.01-.01.02-.01h.02c7.23-2.84,11.25-5.1,11.85-5.41.63-.29.59-.58.48-.84-.03-.06-.05-.11-.08-.17-.44-.83-.83-1.59-1.22-2.28-.24-.44-.37-.28-1.01-.04-7.72,3.35-8.65,3.55-9.1,4.02-1.86,1.54-9.61,2.8-14.69,3.08-5.08-.28-12.82-1.54-14.69-3.08-.45-.47-1.37-.67-9.1-4.02-.61-.23-.76-.39-.98,0l-.03.04c-.39.69-.78,1.45-1.22,2.28-.02.03-.03.06-.05.1-.14.27-.24.59.45.91.6.31,4.62,2.57,11.85,5.41h.02-.02c4.34.8,9.08,1.42,13.76,1.94,4.68-.52,9.42-1.13,13.76-1.94"/>
      <path id="aileron-4" data-name="aileron" class="cls-48" d="M36.28,187.79s-.01-.01-.02-.01h-.02c-7.23-2.84-11.25-5.1-11.85-5.41-.63-.29-.59-.58-.48-.84.03-.06.05-.11.08-.17.44-.83.83-1.59,1.22-2.28.24-.44.37-.28,1.01-.04,7.72,3.35,8.65,3.55,9.1,4.02,1.86,1.54,9.61,2.8,14.69,3.08,5.08-.28,12.82-1.54,14.69-3.08.45-.47,1.37-.67,9.1-4.02.61-.23.76-.39.98,0l.03.04c.39.69.78,1.45,1.22,2.28.02.03.03.06.05.1.14.27.24.59-.45.91-.6.31-4.62,2.57-11.85,5.41h-.02.02c-4.34.8-9.08,1.42-13.76,1.94-4.68-.52-9.42-1.13-13.76-1.94"/>
      <g id="aileron-5" data-name="aileron">
        <path class="cls-45" d="M26.22,179.04l4.58,1.95,2.3.96c.69.31,1.67.61,2.23,1.09,2.12,1.36,4.74,1.69,7.17,2.18,2.47.42,5.01.72,7.5.86,2.51-.14,5.02-.44,7.5-.86,2.43-.5,5.06-.83,7.17-2.18.57-.49,1.55-.78,2.23-1.1,0,0,2.3-.96,2.3-.96l4.58-1.95c-1.56.68-5.36,2.31-6.87,2.94-.68.31-1.66.62-2.21,1.1-2.13,1.39-4.75,1.71-7.19,2.23-2.49.43-4.99.74-7.51.89-3.77-.25-7.55-.75-11.21-1.69-1.21-.34-2.45-.68-3.49-1.42-.29-.29-.7-.43-1.07-.61-2.11-.88-5.89-2.51-8.01-3.42h0Z"/>
      </g>
    </g>
    <path id="shadow_aile_right" data-name="shadow aile right" class="cls-46" d="M82.72,125.77c1.62,25.98-1.39,52.7-6.53,55.95-.04-.08-.09-.17-.13-.25,0,0,0,0,0,0-.02-.04-.03-.07-.05-.1.02.03.03.06.05.1,0,0,0,0,0,0-2.88-5.62-4.68-7.64-5.38-10.94,9.73-20.73,11.58-51.92,12.04-44.75Z"/>
    <path id="shadow_aile_left" data-name="shadow aile left" class="cls-60" d="M17.27,125.77c-1.62,25.98,1.39,52.7,6.53,55.95.04-.08.09-.17.13-.25,0,0,0,0,0,0,.02-.04.03-.07.05-.1-.02.03-.03.06-.05.1,0,0,0,0,0,0,2.88-5.62,4.68-7.64,5.38-10.94-9.73-20.73-11.58-51.92-12.04-44.75Z"/>
    <g id="bande_coffre" data-name="bande coffre">
      <line class="cls-3" x1="65.55" y1="182.53" x2="65.55" y2="166.64"/>
      <line class="cls-3" x1="51.67" y1="186.02" x2="51.67" y2="168.28"/>
      <line class="cls-3" x1="48.33" y1="186.02" x2="48.33" y2="168.28"/>
      <line class="cls-3" x1="34.45" y1="182.53" x2="34.45" y2="166.64"/>
      <path d="M52.39,168.28c5.04-.06,8.69-.36,12.43-1.43v15.81l.04.24c-.07.05-.12.1-.18.16-1.59,1.31-7.45,2.43-12.29,2.89v-17.67Z"/>
      <path d="M47.61,168.28c-5.04-.06-8.69-.36-12.43-1.43v15.81l-.04.24c.07.05.12.1.18.16,1.59,1.31,7.45,2.43,12.29,2.89v-17.67Z"/>
    </g>
    <g id="bande_capot" data-name="bande capot">
      <path class="cls-2" d="M52.23,57.15l-.96-44.87,9.21,2.72c.81.24,1.39.94,1.49,1.78l4.32,39.95"/>
      <path class="cls-2" d="M33.71,56.72l4.32-39.95c.09-.84.68-1.54,1.49-1.78l9.21-2.72-.96,44.87"/>
      <path d="M65.54,56.59l-4.3-39.73c-.05-.55-.44-1.01-.97-1.17l-8.25-2.44.94,43.9c12.15.06,8.87.91,12.33-.62.08.01.17.03.25.05Z"/>
      <path d="M47.04,57.16l.94-43.9-8.25,2.44c-.53.16-.92.61-.97,1.17l-4.3,39.73c.08-.02.17-.04.25-.05,3.47,1.53.19.69,12.33.62Z"/>
      <path class="cls-58" d="M65.54,56.59l-4.3-39.73c-.05-.52-.4-.94-.88-1.12.34,4.19,2.73,33.91,2.81,41.67.51-.09.9-.33,2.11-.87.08.01.17.03.25.05Z"/>
      <path class="cls-58" d="M34.46,56.59l4.3-39.73c.05-.52.4-.94.88-1.12-.34,4.19-2.73,33.91-2.81,41.67-.51-.09-.9-.33-2.11-.87-.08.01-.17.03-.25.05Z"/>
    </g>
    <g id="avant_phare" data-name="avant phare">
      <path class="cls-18" d="M19.31,16.63c9.97-7.06,28.71-10.39,30.69-10.34,1.99-.05,20.72,3.28,30.69,10.34.28.19.44.19.52.06-.03-.16-.07-.33-.13-.52-4.91-5.16-24.88-9.61-30.67-10.78-.27-.05-.54-.05-.81,0-5.8,1.18-25.76,5.62-30.67,10.78h-.01c-.05.2-.09.36-.12.51.07.14.23.14.52-.05Z"/>
      <path class="cls-6" d="M18.92,16.17c4.91-5.16,24.88-9.61,30.67-10.78.27-.05.54-.05.81,0,5.8,1.18,25.76,5.62,30.67,10.78.06.19.1.36.13.52.1-.17.04-.58-.13-1.15-4.91-5.16-24.88-9.61-30.67-10.78-.27-.05-.54-.05-.81,0-5.8,1.18-25.76,5.62-30.67,10.78h-.01c-.16.56-.22.97-.12,1.14.03-.15.07-.31.12-.5h.01Z"/>
      <path d="M54.09,6.87c-.99-.49-3.26-1.56-4.09-1.52-.83-.04-3.1,1.03-4.09,1.52,2.11-.4,3.6-.58,4.09-.57.49-.01,1.98.18,4.09.57Z"/>
      <path class="cls-45" d="M81.08,15.54c.22.74.44,1.78-.67.91,0,0-1.78-1.14-1.78-1.14-6.11-3.52-12.92-5.69-19.75-7.36-3.42-.66-6.9-1.88-10.4-1.46-9.99,1.72-20.19,4.37-28.8,9.89,0,0-.44.29-.44.29-.77.49-.46-.76-.33-1.13-.14.38-.44,1.62.32,1.13,0,0,.44-.29.44-.29,8.6-5.56,18.79-8.23,28.79-9.99,3.51-.44,7.01.81,10.43,1.48,6.83,1.69,13.63,3.88,19.73,7.42,0,0,1.78,1.15,1.78,1.15,1.04.83.93-.07.67-.91h0Z"/>
    </g>
    <g id="fenetre-right">
      <path class="cls-59" d="M75.95,122.62c-.02-.7-.02-1.37-.01-2.03.33-27.79,1.53-29.86,2.08-32.82l1.85-8.72h0s0,0,0,0c.32.7.5.77,2.03-.18-.39,14.05-1.14,41.09-1.14,41.09-.03.19-.61.14-.51.77l-4.3,1.88Z"/>
      <path class="cls-29" d="M79.87,79.05c.27.57.44.73,1.35.22-.36,13.4-1.1,37.22-1.19,40.32-.25.18-.42.4-.49.66l-3.61,1.58c-.01-.43-.01-.83,0-1.24.33-27.79,1.53-29.86,2.08-32.82l1.85-8.72h0"/>
      <path class="cls-59" d="M81.45,71.56l.03-.15c.21-.78.66-1.34.65-.81,0,.12-.09,3.42-.23,8.26-1.53.96-1.72.87-2.03.17l1.58-7.47.03-.15"/>
      <path class="cls-11" d="M81.9,78.87c-.63.39-1.75,1.35-2.08.16.49-2.5,1.03-4.99,1.63-7.46-.45,2.51-.97,5-1.53,7.48.33,1,1.3.16,1.98-.18h0Z"/>
      <path class="cls-59" d="M80.26,120.73l-4.32,1.89c.09,6.59.87,14.81,1.91,16.87.7,1.73,2.39-12.92,2.94-17.63-.21-.32-.37-.64-.49-.96-.02-.07-.03-.12-.04-.18Z"/>
      <path class="cls-55" d="M77.96,137.34c-.65-3.05-1.18-8.72-1.28-14.24l3.18-1.39c.06.11.12.22.18.33-1.01,8.71-1.66,13.14-2.07,15.31Z"/>
      <path class="cls-9" d="M80.26,120.73c-1.4.72-2.84,1.35-4.32,1.89,1.4-.72,2.84-1.35,4.32-1.89h0Z"/>
      <g id="retro-right">
        <path id="retro" class="cls-6" d="M85.43,76.32c1.27,1.11,5.2,4.41,4.8,6.63-.06.2-.03.54-.83.27l-6.88-2.5c.05-2.38-.69-2.04-.77-2.06.07-3.78.11-4.87.26-6.2,1.69-.91,1.89,2.77,3.42,3.87Z"/>
        <path id="retro-2" data-name="retro" class="cls-38" d="M85.43,76.32c1.27,1.11,5.2,4.41,4.8,6.63-.06.2-.03.54-.83.27l-6.88-2.5c.05-2.38-.69-2.04-.77-2.06.07-3.78.11-4.87.26-6.2,1.69-.91,1.89,2.77,3.42,3.87Z"/>
        <path id="retro-3" data-name="retro" class="cls-30" d="M85.43,76.32c1.27,1.11,5.2,4.41,4.8,6.63-.06.2-.03.54-.83.27l-6.88-2.5c.05-2.38-.69-2.04-.77-2.06.07-3.78.11-4.87.26-6.2,1.69-.91,1.89,2.77,3.42,3.87Z"/>
      </g>
      <g>
        <path class="cls-22" d="M82.79,110.75c.42.67.71,2.33.71,4.28s-.29,3.63-.71,4.29c.12.2.26.31.4.31.62,0,1.11-2.05,1.11-4.6s-.49-4.59-1.11-4.59c-.14,0-.28.11-.4.31Z"/>
        <ellipse class="cls-10" cx="83.24" cy="114.42" rx=".3" ry="1.75"/>
      </g>
    </g>
    <g id="fenetre-left">
      <path class="cls-59" d="M24.05,122.62c.02-.7.02-1.37.01-2.03-.33-27.79-1.53-29.86-2.08-32.82l-1.85-8.72h0s0,0,0,0c-.32.7-.5.77-2.03-.18.39,14.05,1.14,41.09,1.14,41.09.03.19.61.14.51.77l4.3,1.88Z"/>
      <path class="cls-56" d="M20.13,79.05c-.27.57-.44.73-1.35.22.36,13.4,1.1,37.22,1.19,40.32.25.18.42.4.49.66l3.61,1.58c.01-.43.01-.83,0-1.24-.33-27.79-1.53-29.86-2.08-32.82l-1.85-8.72h0"/>
      <path class="cls-59" d="M18.55,71.56l-.03-.15c-.21-.78-.66-1.34-.65-.81,0,.12.09,3.42.23,8.26,1.53.96,1.72.87,2.03.17l-1.58-7.47-.03-.15"/>
      <path class="cls-11" d="M18.1,78.87c.68.33,1.65,1.18,1.98.18-.56-2.48-1.08-4.98-1.53-7.48.6,2.47,1.14,4.96,1.63,7.46-.33,1.19-1.45.23-2.08-.16h0Z"/>
      <path class="cls-59" d="M19.74,120.73l4.32,1.89c-.09,6.59-.87,14.81-1.91,16.87-.7,1.73-2.39-12.92-2.94-17.63.21-.32.37-.64.49-.96.02-.07.03-.12.04-.18Z"/>
      <path class="cls-54" d="M22.04,137.34c.65-3.05,1.18-8.72,1.28-14.24l-3.18-1.39c-.06.11-.12.22-.18.33,1.01,8.71,1.66,13.14,2.07,15.31Z"/>
      <path class="cls-9" d="M19.74,120.73c1.48.54,2.92,1.17,4.32,1.89-1.48-.54-2.92-1.17-4.32-1.89h0Z"/>
      <g id="retro-left">
        <path id="retro-4" data-name="retro" class="cls-6" d="M14.57,76.32c-1.27,1.11-5.2,4.41-4.8,6.63.06.2.03.54.83.27l6.88-2.5c-.05-2.38.69-2.04.77-2.06-.07-3.78-.11-4.87-.26-6.2-1.69-.91-1.89,2.77-3.42,3.87Z"/>
        <path id="retro-5" data-name="retro" class="cls-51" d="M14.57,76.32c-1.27,1.11-5.2,4.41-4.8,6.63.06.2.03.54.83.27l6.88-2.5c-.05-2.38.69-2.04.77-2.06-.07-3.78-.11-4.87-.26-6.2-1.69-.91-1.89,2.77-3.42,3.87Z"/>
        <path id="retro-6" data-name="retro" class="cls-53" d="M14.57,76.32c-1.27,1.11-5.2,4.41-4.8,6.63.06.2.03.54.83.27l6.88-2.5c-.05-2.38.69-2.04.77-2.06-.07-3.78-.11-4.87-.26-6.2-1.69-.91-1.89,2.77-3.42,3.87Z"/>
      </g>
      <g>
        <path class="cls-49" d="M16.93,110.75c-.42.67-.71,2.33-.71,4.28s.29,3.63.71,4.29c-.12.2-.26.31-.4.31-.62,0-1.11-2.05-1.11-4.6s.49-4.59,1.11-4.59c.14,0,.28.11.4.31Z"/>
        <ellipse class="cls-10" cx="16.48" cy="114.42" rx=".3" ry="1.75"/>
      </g>
    </g>
    <g id="border">
      <path class="cls-10" d="M77.62,23.84c1.11-.17,2.72-.29,3.86-.39.62-.06,1.32-.17,1.7-.72.38-.51.62-1.13.89-1.71-.24.6-.44,1.22-.84,1.75-.38.58-1.12.71-1.74.78l-3.87.28h0Z"/>
      <path class="cls-10" d="M15.93,21.03c.27.58.51,1.2.89,1.71.37.55,1.07.66,1.7.72l1.93.17c.64.05,1.29.13,1.93.22l-3.87-.28c-.62-.07-1.36-.2-1.74-.78-.39-.53-.6-1.15-.84-1.75,0,0,.24.6,0,0Z"/>
      <path class="cls-10" d="M85.03,163.42c-.16.96-.4,1.94-.94,2.77-.18.25-.43.56-.8.53-1.6-.59-.62-6.91,1.1-6.98.36.09.5.45.6.75.26.95.19,1.96.04,2.92h0ZM85.03,163.42c.24-.89.19-5.05-1.4-3.11-.83,1.15-1.78,5.55-.33,6.36.32.03.58-.25.76-.5.55-.81.8-1.79.97-2.75h0Z"/>
      <g id="border_coffre" data-name="border coffre">
        <path class="cls-58" d="M29.58,164.79c.22,3.03.08,6.19-1.35,8.94-1.4,2.71-3.03,5.28-4.43,8,1.31-2.75,2.97-5.32,4.33-8.04,1.45-2.73,1.58-5.87,1.44-8.89h0Z"/>
      </g>
      <g id="border_coffre-2" data-name="border coffre">
        <path class="cls-58" d="M76.2,181.72c-1.39-2.72-3.03-5.29-4.43-8-1.43-2.75-1.57-5.91-1.35-8.94-.14,3.03,0,6.16,1.44,8.89,1.36,2.72,3.02,5.29,4.33,8.04h0Z"/>
      </g>
      <g>
        <path class="cls-28" d="M15.69,123.24c1.97.83,4.04-2.34,3.59-3.22.14.14.66.15.43.88-.56,1.55-2.38,3.43-4.03,2.56"/>
        <path class="cls-57" d="M84.32,123.24c-1.97.83-4.04-2.34-3.59-3.22-.14.14-.66.15-.43.88.56,1.55,2.38,3.43,4.03,2.56"/>
      </g>
      <g>
        <path class="cls-58" d="M50,137.33c.56-.01.82-.07.85-.43.08-.7-.12-2.81-.12-2.81-.08-.91-.45-1.44-.73-1.44s-.65.53-.73,1.44c0,0-.2,2.11-.12,2.81.04.36.29.42.85.43Z"/>
        <line class="cls-4" x1="50" y1="133.35" x2="50" y2="137.64"/>
      </g>
      <g id="border_toit" data-name="border toit">
        <path class="cls-44" d="M57.03,99.09c.17,9.84-.02,20.66-.53,30.49-.17-9.84.02-20.66.53-30.49h0Z"/>
        <path class="cls-44" d="M42.97,99.09c.51,9.83.7,20.65.53,30.49-.51-9.83-.7-20.65-.53-30.49h0Z"/>
        <g id="border_toit-2" data-name="border toit">
          <path class="cls-58" d="M24.64,87.47c2.23,8.56,1.96,17.55,2.5,26.32.33,8.82.67,17.65,1.11,26.47-.48-8.82-.85-17.64-1.21-26.46-.51-8.78-.2-17.76-2.4-26.33h0Z"/>
        </g>
        <g id="border_toit-3" data-name="border toit">
          <path class="cls-58" d="M71.75,140.26c.44-8.82.78-17.64,1.11-26.47.54-8.78.27-17.76,2.5-26.32-2.2,8.57-1.89,17.55-2.4,26.33-.36,8.82-.74,17.65-1.21,26.46h0Z"/>
        </g>
      </g>
    </g>
    <g id="parebrise_avant" data-name="parebrise avant">
      <path class="cls-59" d="M80.87,64.54l-5.51,22.92c-.18.76-.26.72-.48.62-5.13-2.32-14.24-2.91-20.15-3.07-2.07-.05-3.76-.05-4.74-.05s-2.52,0-4.48.05c-5.9.14-15.21.72-20.41,3.07-.22.09-.3.14-.48-.62l-5.51-22.92c-.4-1.63,15.58-8.01,30.87-7.39,15.3-.62,31.27,5.76,30.87,7.39Z"/>
      <path class="cls-43" d="M77.19,65.12c-4.45-1.88-14.47-4.81-25.07-4.81-.69,0-1.37.01-2.05.04h-.13c-.68-.03-1.37-.04-2.05-.04-10.6,0-20.62,2.92-25.07,4.81-1.18.5-1.8,1.79-1.49,3.03l1.79,7.01c5.66-1.15,35.86-4.85,53.47,1.16l2.09-8.16c.32-1.24-.31-2.53-1.49-3.03Z"/>
      <path class="cls-36" d="M23.12,75.16l.68,2.67c.91-.17,3.23-.51,8.85-.89,0,0,6.56-.39,7.53-.47,4.98-.45,19.45-.42,36.08,1.15l.33-1.31c-17.61-6.01-47.81-2.31-53.47-1.16Z"/>
      <polygon class="cls-20" points="32.88 76.05 36.28 75.87 36.1 72.49 32.25 72.62 32.88 76.05"/>
      <path class="cls-14" d="M36.01,76.94c4.68-.19,5.08-.04,5.08-1.36-.25-4.39.24-7.68-2.54-7.54-3.28.33-3.12-.67-2.55,8.9Z"/>
      <path class="cls-17" d="M54.87,76.54l-.11,7.08c-1.49-.03-3.04-.05-4.65-.05h-.15c-1.53,0-3,.02-4.41.05l.11-7.23,9.21.16Z"/>
      <path class="cls-11" d="M36,76.83v.02c-.14.52.1.46.48.49,4.41-.15,3.37-.07,4.24-.8-.53.29-1.78.28-4.7.4,0-.02,0-.05-.01-.08v-.02Z"/>
      <path class="cls-52" d="M33.19,77.26c-4.67.3-5.06.5-5.2-.81-.21-4.39-1.05-7.61,1.72-7.77,3.3-.02,3.03-1,3.47,8.58Z"/>
      <path class="cls-11" d="M33.19,77.16v.02c.19.5-.05.47-.42.54-4.4.32-3.36.28-4.3-.35.56.23,1.8.09,4.72-.1,0-.02,0-.05,0-.08v-.02Z"/>
      <g>
        <path class="cls-19" d="M44.53,76.88c-.11,0-.2-.04-.28-.12-.07-.08-.11-.17-.11-.28v-.21c0-.21.18-.39.39-.39l10.99.18c.1,0,.2.04.28.12.07.08.11.17.11.28v.21c0,.21-.18.39-.39.39l-10.99-.18Z"/>
        <path class="cls-11" d="M44.54,75.78v.21s10.99.18,10.99.18c.16,0,.29.13.28.29v.21c0,.16-.13.28-.3.28l-10.99-.18c-.08,0-.15-.03-.2-.09-.05-.06-.08-.13-.08-.2v-.21c0-.16.13-.28.29-.28v-.21M44.54,75.78c-.27,0-.49.22-.5.49v.21c0,.27.21.5.48.5l10.99.18s0,0,0,0c.27,0,.49-.22.5-.49v-.21c0-.27-.21-.5-.48-.5l-10.99-.18s0,0,0,0h0Z"/>
      </g>
      <path class="cls-59" d="M25.95,68.41c8-1.9,16.38-1.89,24.57-1.9,8.23.22,16.47,1.09,24.46,3.12-8-2-16.23-2.84-24.46-3.02-8.19-.03-16.57-.07-24.57,1.79h0Z"/>
      <path class="cls-37" d="M45.39,67.02c0,4.6.11,4.99,7.02,4.82,1.9-.08,2.9-.98,2.9-4.26,0-.56-.96-.4-9.92-.56Z"/>
      <path class="cls-35" d="M45.57,67.02c0,3.76.11,4.08,6.65,3.95,1.79-.07,2.74-.8,2.74-3.49,0-.46-.91-.33-9.39-.46Z"/>
      <path class="cls-1" d="M60.41,64.8c-6.68-.59-16.35-.63-20.45-.42-.72-.02-.54-1.61.17-1.72,4.1-.21,13.77-.17,20.45.42,1.25.12,1.01,1.84-.17,1.72Z"/>
      <path class="cls-15" d="M78.68,68.15l-4.58,17.93c-4.25-1.43-10.73-2.25-19.34-2.47-1.49-.03-3.04-.05-4.65-.05h-.15c-1.53,0-3,.02-4.41.05-8.77.2-15.35,1.02-19.64,2.46l-4.58-17.92c-.31-1.24.31-2.54,1.49-3.04,4.44-1.88,14.47-4.81,25.07-4.81.69,0,1.37.02,2.05.04h.12c.69-.02,1.37-.04,2.06-.04,10.6,0,20.62,2.92,25.06,4.81,1.19.5,1.81,1.8,1.49,3.04Z"/>
      <path class="cls-16" d="M74.1,86.08c-4.99-1.67-13.04-2.52-23.99-2.52h-.15c-11.01,0-19.07.85-24.05,2.52l-4.58-17.93c-.32-1.24.31-2.53,1.49-3.03,4.45-1.88,14.47-4.81,25.07-4.81.68,0,1.37.01,2.05.04h.13c.68-.03,1.37-.04,2.05-.04,10.6,0,20.62,2.92,25.07,4.81,1.18.5,1.8,1.79,1.49,3.03l-4.58,17.93Z"/>
    </g>
    <g id="parebrise_arriere" data-name="parebrise arriere">
      <path id="parebrise_arriere-2" data-name="parebrise arriere" class="cls-59" d="M28.25,140.26l1.32,24.27c.01.09.01.18.01.26,6.79,3.06,11.47,3.5,20.42,3.5s13.63-.44,20.42-3.5c0-.08,0-.17.01-.26l1.32-24.27c-3.46.54-11.5,1.46-21.75,1.45-10.25.01-18.3-.91-21.75-1.45Z"/>
      <path class="cls-12" d="M47.22,162.71c13.4-.04,20.85.57,20.99-17.11-8.49,1.66-29.06,1.26-36.84.01.89,13.9,3.33,16.7,15.85,17.1Z"/>
      <path class="cls-26" d="M69.98,143.99l.11-1.93c-3.4.42-10.59,1.13-19.92,1.13h-.34c-9.33,0-16.52-.71-19.92-1.13l.12,2.11c6.88,1.55,32.59,2.09,39.95-.19Z"/>
      <path class="cls-23" d="M68.21,145.6c.63-.12,1.21-.26,1.7-.41l.07-1.2c-7.36,2.27-33.08,1.74-39.95.19l.06,1.19c.37.08.8.17,1.27.24,7.79,1.25,28.35,1.64,36.84-.01Z"/>
      <path class="cls-13" d="M47.22,162.71c-12.52-.4-14.96-3.2-15.85-17.1-.47-.08-.9-.16-1.27-.24l.91,15.85c.05.84.6,1.55,1.39,1.85,5.25,1.94,9.58,2.31,17.6,2.31s12.36-.37,17.6-2.31c.79-.29,1.34-1.01,1.39-1.84l.92-16.03c-.49.15-1.06.28-1.7.41-.14,17.68-7.59,17.07-20.99,17.11Z"/>
      <path class="cls-10" d="M34.73,155.97c2.54,5.71,9.78,5.38,15.08,5.41,4.17-.1,8.79.28,12.41-2.17,1.16-.82,2.06-1.97,2.7-3.24-.6,1.29-1.47,2.48-2.63,3.35-3.61,2.51-8.3,2.18-12.48,2.32-5.31-.09-12.72.18-15.08-5.67h0Z"/>
      <path class="cls-10" d="M34.73,154.91l7.75-.03c1.41-.09,2.15,1.47,3.45,1.59,2.56,0,5.18.03,7.74-.02.32-.05.6-.19.88-.36.83-.4,1.65-1.18,2.62-1.21,0,0,7.75.03,7.75.03l-7.75.03c-.94.04-1.77.82-2.59,1.22-.27.17-.57.32-.9.38-2.6.08-5.16.04-7.76.02-1.36-.16-2.06-1.7-3.44-1.62l-7.75-.03h0Z"/>
      <path class="cls-10" d="M44.66,143.68c.05.54-.06,1.05-.35,1.51-.05-.54.07-1.05.35-1.51h0Z"/>
      <path class="cls-10" d="M54.37,143.68c.24.48.31.99.2,1.51-.24-.48-.31-.99-.2-1.51h0Z"/>
      <path class="cls-25" d="M50,165.38c-8.02,0-12.36-.37-17.6-2.31-.79-.29-1.34-1.01-1.39-1.85l-1.1-19.16c3.4.42,10.59,1.13,19.92,1.13h.34c9.33,0,16.52-.71,19.92-1.13l-1.1,19.16c-.05.84-.6,1.55-1.39,1.84-5.25,1.93-9.58,2.31-17.6,2.31Z"/>
      <path class="cls-24" d="M50,165.38c-8.02,0-12.36-.37-17.6-2.31-.79-.29-1.34-1.01-1.39-1.85l-1.1-19.16c3.4.42,10.59,1.13,19.92,1.13h.34c9.33,0,16.52-.71,19.92-1.13l-1.1,19.16c-.05.84-.6,1.55-1.39,1.84-5.25,1.93-9.58,2.31-17.6,2.31Z"/>
    </g>
    <g id="barre_feu_arriere" data-name="barre feu arriere">
      <path class="cls-21" d="M63.8,187.77c6.8-1.27,12.58-3.03,15.56-5.64.17-1.07.06-2.39-.08-2.25-2.4,2.41-2.73,2.32-3.18,1.64.11.26.16.55-.48.84-.6.31-4.61,2.56-11.81,5.4Z"/>
      <path class="cls-50" d="M36.2,187.77c-6.8-1.27-12.58-3.03-15.56-5.64-.17-1.07-.06-2.39.08-2.25,2.4,2.41,2.73,2.32,3.18,1.64-.11.26-.16.55.48.84.6.31,4.61,2.56,11.81,5.4Z"/>
    </g>
    <path id="right_rear_indicator_back" d="M75.1,183.54c.54.16,1.35,0,2.11-.44,1.12-.64,1.74-1.66,1.39-2.27-.03-.06-.08-.11-.13-.16-1.68,1.6-1.98,1.45-2.38.86.12.26.16.55-.48.84-.34.13-.52.68-.51,1.17Z"/>
    <path id="left_rear_indicator_back" d="M24.9,183.54c-.54.16-1.35,0-2.11-.44-1.12-.64-1.74-1.66-1.39-2.27.03-.06.08-.11.13-.16,1.68,1.6,1.98,1.45,2.38.86-.12.26-.16.55.48.84.34.13.52.68.51,1.17Z"/>
    <path id="right_front_indicator" d="M79.02,14.54c.82.55,1.52,1.07,2.05,1.62h.01c.05.2.09.36.12.51-.07.14-.23.14-.52-.05-.62-.44-1.28-.87-1.97-1.28-.94-.62.04-.97.3-.8Z"/>
    <path id="left_front_indicator" d="M20.97,14.55c-.82.55-1.52,1.07-2.05,1.62h-.01c-.05.2-.09.36-.12.51.07.14.23.14.52-.05.62-.44,1.28-.87,1.97-1.28.94-.62-.04-.97-.3-.8Z"/>
    <path id="headlight_faiseau-2" class="cls-8" d="M19.31,16.63c9.97-7.06,28.71-10.39,30.69-10.34,1.99-.05,20.72,3.28,30.69,10.34.28.19.44.19.52.06-.03-.16-.07-.33-.13-.52-4.91-5.16-24.88-9.61-30.67-10.78-.27-.05-.54-.05-.81,0-5.8,1.18-25.76,5.62-30.67,10.78h-.01c-.05.2-.09.36-.12.51.07.14.23.14.52-.05Z"/>
    <path id="headlight_faiseau" class="cls-7" d="M80.69,16.63c-9.97-7.06-28.71-10.39-30.69-10.34-1.99-.05-20.72,3.28-30.69,10.34-.28.19-.44.19-.52.06.03-.16.07-.33.13-.52,4.91-5.16,24.88-9.61,30.67-10.78.27-.05.54-.05.81,0,5.8,1.18,25.76,5.62,30.67,10.78h.01c.05.2.09.36.12.51-.07.14-.23.14-.52-.05Z"/>
  </g>
</svg>